<svg width="97" height="34" viewBox="0 0 97 34" fill="none" xmlns="http://www.w3.org/2000/svg">
<g clip-path="url(#clip0_415_89)">
<path fill-rule="evenodd" clip-rule="evenodd" d="M86.8488 27.0586C93.2819 28.0988 96.6654 29.128 96.6654 29.128L96.5397 29.579C93.2269 28.7808 89.8199 28.1397 86.3567 27.634C85.6066 28.323 84.5452 28.6441 81.4549 28.6441C81.0905 28.6441 80.8854 28.6261 80.6271 28.6035C80.5366 28.5955 80.4394 28.587 80.3267 28.5785V26.8931C42.4033 23.066 0.332031 33.7275 0.332031 33.7275L1.01788 31.5022C37.0251 23.5389 64.2955 24.2879 80.3201 26.1551V24.7731H81.4483C81.8528 24.7731 82.807 24.7731 83.2415 24.3426C83.5884 24.0446 83.8776 23.3148 83.8776 22.619C83.8776 22.2541 83.7035 21.5912 83.5596 21.1606L78.9471 6.29744V23.4187H74.7835V21.5296C74.2692 22.3251 73.2862 23.7836 70.857 23.7836C67.2995 23.7836 64.6385 20.469 64.6385 15.1014C64.6385 8.34088 68.3413 5.82178 71.175 5.82178C72.8229 5.82178 74.1252 6.78267 74.8765 8.44066V6.22089H78.9536V6.2537H83.5661L86.2873 17.8187L88.7742 6.2537H93.0934L88.3305 23.282C88.0268 24.3508 87.5465 26.0293 86.8488 27.0586ZM71.6201 19.765C71.8805 19.765 72.7195 19.7021 73.472 18.8083C74.3674 17.682 74.5702 16.1907 74.5676 14.6366C74.5676 12.4168 74.0466 11.2564 73.4982 10.6276C73.0763 10.0955 72.4554 9.77875 71.7941 9.75831C71.0127 9.75831 70.2064 10.2545 69.6828 11.0172C68.9603 12.1093 68.7863 13.4679 68.7863 14.7938C68.7863 15.8545 68.9028 16.8823 69.2483 17.7435C69.8269 19.2346 70.7823 19.765 71.6201 19.765Z" fill="#2C2C2C" style="fill:#2C2C2C;fill:color(display-p3 0.1725 0.1725 0.1725);fill-opacity:1;"/>
<path d="M52.3508 23.4628L54.8242 11.9762L57.3275 23.4628H61.2679L65.5833 6.46289H61.2679L58.9963 17.0968L56.6935 6.46289H52.9549L50.626 17.0968L48.3545 6.46289H44.0391L48.3545 23.4628H52.3508Z" fill="#2C2C2C" style="fill:#2C2C2C;fill:color(display-p3 0.1725 0.1725 0.1725);fill-opacity:1;"/>
<path fill-rule="evenodd" clip-rule="evenodd" d="M16.3977 18.4884H9.69001L8.35397 23.4635H3.10156L10.2538 0.0483398H15.5967L22.4657 21.6372V6.32694H26.7006V8.63911C26.7088 8.62086 26.7168 8.60235 26.7251 8.58357C26.9253 8.12896 27.1924 7.52221 27.8597 6.95071C28.6136 6.28872 29.7137 5.9243 30.7862 5.9243C31.3485 5.92679 31.9065 6.02736 32.4369 6.22184C34.1466 6.8852 34.6383 8.27467 34.8415 8.86978C36.175 6.32149 38.2898 5.95841 39.4187 5.95841C40.8098 5.95841 42.0266 6.48801 42.8382 7.31514C44.2857 8.7715 44.3433 10.3589 44.3433 14.3294V23.4593H40.0847V15.3518C40.0847 12.6042 40.027 12.0419 39.5931 11.3143C39.1289 10.5241 38.4628 10.3589 37.8257 10.3589C37.0953 10.355 36.4102 10.7269 35.9953 11.3526C35.5312 12.1797 35.5312 13.6019 35.5312 14.9914V23.4635H31.27V14.8262C31.27 12.9727 31.27 12.1456 30.8399 11.3799C30.473 10.7445 29.8134 10.3556 29.1014 10.3548C28.7159 10.356 28.3371 10.4589 28 10.6537C26.7545 11.3772 26.7256 12.6383 26.7256 15.8814V23.4635H17.7653L16.3977 18.4884ZM15.2414 14.2107L12.9548 5.18861L10.7835 14.2107H15.2414Z" fill="#2C2C2C" style="fill:#2C2C2C;fill:color(display-p3 0.1725 0.1725 0.1725);fill-opacity:1;"/>
<path d="M89.6378 26.3498V24.7625H90.2029V24.4253H88.6641V24.7625H89.2447V26.3498H89.6378Z" fill="#2C2C2C" style="fill:#2C2C2C;fill:color(display-p3 0.1725 0.1725 0.1725);fill-opacity:1;"/>
<path d="M91.9797 26.3498H92.3584V24.4362H91.8535L91.442 25.8864L91.0078 24.4253H90.5117V26.3388H90.8904L90.8689 25.2357C90.8677 25.1078 90.8587 24.9799 90.8424 24.8531C90.8525 24.8996 90.9131 25.1141 90.9232 25.1606L91.2602 26.3498H91.5997L91.9355 25.1716C91.9633 25.0609 91.9948 24.9337 92.0163 24.8531C92.0163 24.9228 91.9948 25.1265 91.9948 25.2467L91.9797 26.3498Z" fill="#2C2C2C" style="fill:#2C2C2C;fill:color(display-p3 0.1725 0.1725 0.1725);fill-opacity:1;"/>
</g>
<defs>
<clipPath id="clip0_415_89">
<rect width="97" height="34" fill="white" style="fill:white;fill-opacity:1;"/>
</clipPath>
</defs>
</svg>
