<svg width="59" height="59" viewBox="0 0 59 59" fill="none" xmlns="http://www.w3.org/2000/svg">
<circle cx="29.5" cy="29.5" r="29.5" fill="white" style="fill:white;fill-opacity:1;"/>
<path d="M29.5 11C19.2834 11 11 19.326 11 29.5953C11 38.9177 17.8327 46.6162 26.7343 47.9613V34.5231H22.157V29.6356H26.7343V26.383C26.7343 20.9981 29.3443 18.6349 33.7966 18.6349C35.9288 18.6349 37.0572 18.7945 37.5907 18.8658V23.1319H34.5536C32.6635 23.1319 32.0037 24.9341 32.0037 26.9641V29.6356H37.5429L36.7921 34.5231H32.0037V48C41.0332 46.7696 48 39.0092 48 29.5953C48 19.326 39.7166 11 29.5 11Z" fill="#1E7CF2" style="fill:#1E7CF2;fill:color(display-p3 0.1176 0.4863 0.9490);fill-opacity:1;"/>
</svg>
