<svg width="23" height="23" viewBox="0 0 23 23" fill="none" xmlns="http://www.w3.org/2000/svg">
<circle cx="11.5" cy="11.5" r="11.5" fill="#FF0000" style="fill:#FF0000;fill:color(display-p3 1.0000 0.0000 0.0000);fill-opacity:1;"/>
<path d="M12.7768 5.822L12.4968 12.528H10.4668L10.1868 5.822H12.7768ZM11.5168 16.112C11.0968 16.112 10.7515 15.9907 10.4808 15.748C10.2195 15.496 10.0888 15.188 10.0888 14.824C10.0888 14.4507 10.2195 14.138 10.4808 13.886C10.7515 13.634 11.0968 13.508 11.5168 13.508C11.9275 13.508 12.2635 13.634 12.5248 13.886C12.7955 14.138 12.9308 14.4507 12.9308 14.824C12.9308 15.188 12.7955 15.496 12.5248 15.748C12.2635 15.9907 11.9275 16.112 11.5168 16.112Z" fill="white" style="fill:white;fill-opacity:1;"/>
</svg>
