<svg width="59" height="59" viewBox="0 0 59 59" fill="none" xmlns="http://www.w3.org/2000/svg">
<circle cx="29.5" cy="29.5" r="29.5" fill="white" style="fill:white;fill-opacity:1;"/>
<path d="M21.7887 11C15.8394 11 11 15.8438 11 21.7947V37.2113C11 43.1606 15.8438 48 21.7947 48H37.2113C43.1606 48 48 43.1562 48 37.2053V21.7887C48 15.8394 43.1562 11 37.2053 11H21.7887ZM40.2917 17.1667C41.1427 17.1667 41.8333 17.8573 41.8333 18.7083C41.8333 19.5593 41.1427 20.25 40.2917 20.25C39.4407 20.25 38.75 19.5593 38.75 18.7083C38.75 17.8573 39.4407 17.1667 40.2917 17.1667ZM29.5 20.25C34.6014 20.25 38.75 24.3986 38.75 29.5C38.75 34.6014 34.6014 38.75 29.5 38.75C24.3986 38.75 20.25 34.6014 20.25 29.5C20.25 24.3986 24.3986 20.25 29.5 20.25ZM29.5 23.3333C27.8645 23.3333 26.296 23.983 25.1395 25.1395C23.983 26.296 23.3333 27.8645 23.3333 29.5C23.3333 31.1355 23.983 32.704 25.1395 33.8605C26.296 35.017 27.8645 35.6667 29.5 35.6667C31.1355 35.6667 32.704 35.017 33.8605 33.8605C35.017 32.704 35.6667 31.1355 35.6667 29.5C35.6667 27.8645 35.017 26.296 33.8605 25.1395C32.704 23.983 31.1355 23.3333 29.5 23.3333Z" fill="url(#paint0_linear_703_19)" style=""/>
<defs>
<linearGradient id="paint0_linear_703_19" x1="12" y1="18.5" x2="46.5" y2="43" gradientUnits="userSpaceOnUse">
<stop stop-color="#F9CE34" style="stop-color:#F9CE34;stop-color:color(display-p3 0.9765 0.8078 0.2039);stop-opacity:1;"/>
<stop offset="0.499651" stop-color="#EE2A7B" style="stop-color:#EE2A7B;stop-color:color(display-p3 0.9333 0.1647 0.4824);stop-opacity:1;"/>
<stop offset="1" stop-color="#6228D7" style="stop-color:#6228D7;stop-color:color(display-p3 0.3843 0.1569 0.8431);stop-opacity:1;"/>
</linearGradient>
</defs>
</svg>
