<svg width="361" height="126" viewBox="0 0 361 126" fill="none" xmlns="http://www.w3.org/2000/svg">
<path fill-rule="evenodd" clip-rule="evenodd" d="M323.219 100.276C347.161 104.131 359.753 107.945 359.753 107.945L359.286 109.616C346.957 106.658 334.277 104.282 321.388 102.408C318.597 104.961 314.646 106.152 303.145 106.152C301.789 106.152 301.026 106.085 300.065 106.001C299.728 105.972 299.366 105.94 298.946 105.909V99.6627C157.809 85.4797 1.23438 124.99 1.23438 124.99L3.78687 116.743C137.793 87.2324 239.284 90.0082 298.922 96.9277V91.8062H303.121C304.626 91.8062 308.177 91.8062 309.794 90.2106C311.085 89.1064 312.162 86.4016 312.162 83.8232C312.162 82.4708 311.514 80.0143 310.978 78.4187L293.812 23.3374V86.7868H278.317V79.7862C276.403 82.7342 272.744 88.1392 263.704 88.1392C250.464 88.1392 240.561 75.8554 240.561 55.9638C240.561 30.9102 254.341 21.5747 264.887 21.5747C271.02 21.5747 275.867 25.1357 278.663 31.28V23.0538H293.836V23.1754H311.002L321.13 66.0337L330.385 23.1754H346.46L328.734 86.2802C327.603 90.2413 325.816 96.4615 323.219 100.276ZM266.543 73.2468C267.513 73.2468 270.635 73.0137 273.436 69.7012C276.768 65.5272 277.523 60.0008 277.513 54.2414C277.513 46.0153 275.574 41.7147 273.533 39.3846C271.963 37.4126 269.652 36.2388 267.191 36.163C264.283 36.163 261.283 38.0018 259.334 40.8283C256.645 44.8754 255.997 49.9103 255.997 54.8239C255.997 58.7547 256.431 62.5637 257.717 65.7553C259.87 71.2812 263.426 73.2468 266.543 73.2468Z" fill="#D9FFA4" style="fill:#D9FFA4;fill:color(display-p3 0.8510 1.0000 0.6425);fill-opacity:1;"/>
<path d="M194.832 86.9505L204.037 44.3823L213.353 86.9505H228.018L244.078 23.9507H228.018L219.564 63.3587L210.994 23.9507H197.08L188.413 63.3587L179.959 23.9507H163.898L179.959 86.9505H194.832Z" fill="#D9FFA4" style="fill:#D9FFA4;fill:color(display-p3 0.8510 1.0000 0.6425);fill-opacity:1;"/>
<path fill-rule="evenodd" clip-rule="evenodd" d="M61.0305 68.5158H36.0668L31.0945 86.953H11.5469L38.165 0.179199H58.0493L83.6134 80.1851V23.4469H99.3743V32.0156C99.4047 31.948 99.4347 31.8794 99.4655 31.8098C100.21 30.125 101.204 27.8765 103.688 25.7586C106.494 23.3053 110.588 21.9548 114.579 21.9548C116.672 21.9641 118.749 22.3368 120.723 23.0575C127.086 25.5158 128.915 30.665 129.672 32.8704C134.634 23.4267 142.505 22.0812 146.706 22.0812C151.884 22.0812 156.412 24.0438 159.433 27.1091C164.82 32.5062 165.034 38.3889 165.034 53.1031V86.9374H149.185V56.8919C149.185 46.7098 148.971 44.6258 147.356 41.9297C145.628 39.001 143.149 38.3889 140.778 38.3889C138.06 38.3745 135.51 39.7527 133.966 42.0713C132.239 45.1365 132.239 50.4071 132.239 55.5563V86.953H116.38V54.9443C116.38 48.0752 116.38 45.0101 114.779 42.1726C113.414 39.818 110.959 38.3766 108.309 38.3737C106.875 38.3783 105.465 38.7594 104.21 39.4815C99.5747 42.1625 99.4671 46.8362 99.4671 58.8545V86.953H66.1202L61.0305 68.5158ZM56.727 52.6633L48.2171 19.2284L40.1364 52.6633H56.727Z" fill="#D9FFA4" style="fill:#D9FFA4;fill:color(display-p3 0.8510 1.0000 0.6425);fill-opacity:1;"/>
<path d="M333.601 97.6491V91.7666H335.704V90.5171H329.977V91.7666H332.137V97.6491H333.601Z" fill="#D9FFA4" style="fill:#D9FFA4;fill:color(display-p3 0.8510 1.0000 0.6425);fill-opacity:1;"/>
<path d="M342.315 97.6491H343.724V90.5574H341.845L340.314 95.9317L338.698 90.5171H336.852V97.6084H338.261L338.181 93.5205C338.176 93.0463 338.143 92.5726 338.082 92.1026C338.12 92.2748 338.346 93.0698 338.383 93.242L339.637 97.6491H340.901L342.15 93.2828C342.254 92.8725 342.371 92.4012 342.451 92.1026C342.451 92.3609 342.371 93.1156 342.371 93.5613L342.315 97.6491Z" fill="#D9FFA4" style="fill:#D9FFA4;fill:color(display-p3 0.8510 1.0000 0.6425);fill-opacity:1;"/>
</svg>
