<svg width="165" height="991" viewBox="0 0 165 991" fill="none" xmlns="http://www.w3.org/2000/svg">
<mask id="mask0_969_98" style="mask-type:alpha" maskUnits="userSpaceOnUse" x="0" y="813" width="215" height="216">
<path fill-rule="evenodd" clip-rule="evenodd" d="M-5.79606e-06 895.481L-3.56408e-06 946.543L45.4296 946.543L13.3075 978.665L49.4135 1014.77L81.5406 982.644L81.5406 1028.08L132.602 1028.08L132.602 982.649L164.729 1014.78L200.835 978.67L168.708 946.543L214.142 946.543L214.142 895.481L168.703 895.481L200.835 863.349L164.729 827.243L132.602 859.37L132.602 813.937L81.5406 813.937L81.5406 859.375L49.4139 827.249L13.3078 863.355L45.4341 895.481L-5.79606e-06 895.481Z" fill="#EFC71D" style="fill:#EFC71D;fill:color(display-p3 0.9373 0.7804 0.1137);fill-opacity:1;"/>
</mask>
<g mask="url(#mask0_969_98)">
<rect y="1043.46" width="245.089" height="132.167" transform="rotate(-90 0 1043.46)" fill="#168C51" style="fill:#168C51;fill:color(display-p3 0.0858 0.5508 0.3162);fill-opacity:1;"/>
</g>
<mask id="mask1_969_98" style="mask-type:alpha" maskUnits="userSpaceOnUse" x="0" y="600" width="215" height="216">
<path fill-rule="evenodd" clip-rule="evenodd" d="M-5.79607e-06 682.488L-3.56409e-06 733.55L45.4296 733.55L13.3075 765.672L49.4135 801.778L81.5406 769.651L81.5406 815.087L132.602 815.087L132.602 769.656L164.729 801.783L200.835 765.677L168.708 733.55L214.142 733.55L214.142 682.488L168.703 682.488L200.835 650.357L164.729 614.251L132.602 646.377L132.602 600.945L81.5406 600.945L81.5406 646.383L49.4139 614.256L13.3078 650.362L45.4341 682.488L-5.79607e-06 682.488Z" fill="#EFC71D" style="fill:#EFC71D;fill:color(display-p3 0.9373 0.7804 0.1137);fill-opacity:1;"/>
</mask>
<g mask="url(#mask1_969_98)">
<rect y="830.473" width="245.089" height="132.167" transform="rotate(-90 0 830.473)" fill="#168C51" style="fill:#168C51;fill:color(display-p3 0.0858 0.5508 0.3162);fill-opacity:1;"/>
</g>
<mask id="mask2_969_98" style="mask-type:alpha" maskUnits="userSpaceOnUse" x="0" y="387" width="215" height="216">
<path fill-rule="evenodd" clip-rule="evenodd" d="M-5.79607e-06 469.512L-3.56409e-06 520.574L45.4296 520.574L13.3075 552.696L49.4135 588.802L81.5406 556.675L81.5406 602.111L132.602 602.111L132.602 556.68L164.729 588.807L200.835 552.701L168.708 520.574L214.142 520.574L214.142 469.512L168.703 469.512L200.835 437.38L164.729 401.274L132.602 433.401L132.602 387.968L81.5406 387.968L81.5406 433.407L49.4139 401.28L13.3078 437.386L45.4341 469.512L-5.79607e-06 469.512Z" fill="#EFC71D" style="fill:#EFC71D;fill:color(display-p3 0.9373 0.7804 0.1137);fill-opacity:1;"/>
</mask>
<g mask="url(#mask2_969_98)">
<rect y="617.495" width="245.089" height="132.167" transform="rotate(-90 0 617.495)" fill="#168C51" style="fill:#168C51;fill:color(display-p3 0.0858 0.5508 0.3162);fill-opacity:1;"/>
</g>
<mask id="mask3_969_98" style="mask-type:alpha" maskUnits="userSpaceOnUse" x="0" y="174" width="215" height="216">
<path fill-rule="evenodd" clip-rule="evenodd" d="M-5.79607e-06 256.536L-3.56409e-06 307.598L45.4296 307.598L13.3075 339.72L49.4135 375.826L81.5406 343.699L81.5406 389.135L132.602 389.135L132.602 343.704L164.729 375.831L200.835 339.725L168.708 307.598L214.142 307.598L214.142 256.536L168.703 256.536L200.835 224.405L164.729 188.299L132.602 220.425L132.602 174.993L81.5406 174.993L81.5406 220.431L49.4139 188.304L13.3078 224.41L45.4341 256.536L-5.79607e-06 256.536Z" fill="#EFC71D" style="fill:#EFC71D;fill:color(display-p3 0.9373 0.7804 0.1137);fill-opacity:1;"/>
</mask>
<g mask="url(#mask3_969_98)">
<rect y="404.514" width="245.089" height="132.167" transform="rotate(-90 0 404.514)" fill="#168C51" style="fill:#168C51;fill:color(display-p3 0.0858 0.5508 0.3162);fill-opacity:1;"/>
</g>
<mask id="mask4_969_98" style="mask-type:alpha" maskUnits="userSpaceOnUse" x="0" y="-38" width="215" height="215">
<path fill-rule="evenodd" clip-rule="evenodd" d="M-5.79607e-06 43.5436L-3.56409e-06 94.6052L45.4296 94.6052L13.3075 126.727L49.4135 162.833L81.5406 130.706L81.5406 176.142L132.602 176.142L132.602 130.712L164.729 162.839L200.835 126.733L168.708 94.6052L214.142 94.6052L214.142 43.5436L168.703 43.5436L200.835 11.412L164.729 -24.6941L132.602 7.43255L132.602 -38.0001L81.5406 -38.0001L81.5406 7.43803L49.4139 -24.6887L13.3078 11.4173L45.4341 43.5436L-5.79607e-06 43.5436Z" fill="#EFC71D" style="fill:#EFC71D;fill:color(display-p3 0.9373 0.7804 0.1137);fill-opacity:1;"/>
</mask>
<g mask="url(#mask4_969_98)">
<rect y="191.528" width="245.089" height="132.167" transform="rotate(-90 0 191.528)" fill="#168C51" style="fill:#168C51;fill:color(display-p3 0.0858 0.5508 0.3162);fill-opacity:1;"/>
</g>
</svg>
