<svg width="62" height="62" viewBox="0 0 62 62" fill="none" xmlns="http://www.w3.org/2000/svg">
<circle cx="31" cy="31" r="31" fill="#088043" style="fill:#088043;fill:color(display-p3 0.0313 0.5008 0.2639);fill-opacity:1;"/>
<path d="M19.9548 16.0004C19.6175 16.0004 19.2799 16.1288 19.0228 16.3865L16.3865 19.0228C15.8712 19.5382 15.8712 20.3727 16.3865 20.8868L25.9998 30.5L16.3865 40.1132C15.8712 40.6286 15.8712 41.4631 16.3865 41.9772L19.0228 44.6135C19.5382 45.1288 20.3727 45.1288 20.8868 44.6135L30.5 35.0002L40.1132 44.6135C40.6273 45.1288 41.4631 45.1288 41.9772 44.6135L44.6135 41.9772C45.1288 41.4618 45.1288 40.6273 44.6135 40.1132L35.0002 30.5L44.6135 20.8868C45.1288 20.3727 45.1288 19.5369 44.6135 19.0228L41.9772 16.3865C41.4618 15.8712 40.6273 15.8712 40.1132 16.3865L30.5 25.9998L20.8868 16.3865C20.6291 16.1288 20.2921 16.0004 19.9548 16.0004Z" fill="#D9FFA4" style="fill:#D9FFA4;fill:color(display-p3 0.8510 1.0000 0.6425);fill-opacity:1;"/>
</svg>
