<svg width="257" height="991" viewBox="0 0 257 991" fill="none" xmlns="http://www.w3.org/2000/svg">
<path fill-rule="evenodd" clip-rule="evenodd" d="M257 250.14L257 188.859L202.473 188.859L241.03 150.303L197.698 106.97L159 145.668L159 -1.66111e-06L98 -6.95011e-06L98 145.668L59.3032 106.971L15.971 150.303L54.5274 188.859L-3.87729e-05 188.859L-4.14516e-05 250.14L54.5275 250.14L15.9711 288.697L59.3033 332.029L98 293.332L98 348L159 348L159 293.332L197.697 332.03L241.03 288.697L202.473 250.14L257 250.14Z" fill="#168C51" style="fill:#168C51;fill:color(display-p3 0.0858 0.5508 0.3162);fill-opacity:1;"/>
<path fill-rule="evenodd" clip-rule="evenodd" d="M257 526.14L257 464.859L202.473 464.859L241.03 426.303L197.698 382.97L159.14 421.528L159.14 367L97.8589 367L97.8589 421.527L59.3032 382.971L15.971 426.303L54.5274 464.859L-4.90389e-05 464.859L-5.17176e-05 526.14L54.5275 526.14L15.9711 564.697L59.3033 608.029L97.8589 569.473L97.8589 624L159.14 624L159.14 569.472L197.697 608.03L241.03 564.697L202.473 526.14L257 526.14Z" fill="#168C51" style="fill:#168C51;fill:color(display-p3 0.0858 0.5508 0.3162);fill-opacity:1;"/>
<path fill-rule="evenodd" clip-rule="evenodd" d="M257 783.14L257 721.859L202.473 721.859L241.03 683.302L197.698 639.97L159 678.668L159 643L98 643L98 678.668L59.3032 639.971L15.971 683.303L54.5274 721.859L-4.83408e-05 721.859L-5.10195e-05 783.14L54.5275 783.14L15.9711 821.697L59.3033 865.029L98 826.332L98 991L159 991L159 826.332L197.697 865.029L241.03 821.697L202.473 783.14L257 783.14Z" fill="#168C51" style="fill:#168C51;fill:color(display-p3 0.0858 0.5508 0.3162);fill-opacity:1;"/>
</svg>
