<svg width="257" height="1661" viewBox="0 0 257 1661" fill="none" xmlns="http://www.w3.org/2000/svg">
<path fill-rule="evenodd" clip-rule="evenodd" d="M257 447.14L257 385.859L202.474 385.859L241.031 347.302L197.699 303.97L159.141 342.529L159.141 288L97.8597 288L97.8596 342.526L59.3048 303.971L15.9726 347.303L54.529 385.859L-4.90389e-05 385.859L-5.17176e-05 447.14L54.529 447.14L15.9727 485.697L59.3049 529.029L97.8596 490.474L97.8596 545L159.141 545L159.141 490.471L197.699 529.029L241.031 485.697L202.474 447.14L257 447.14Z" fill="#168C51" style="fill:#168C51;fill:color(display-p3 0.0858 0.5508 0.3162);fill-opacity:1;"/>
<path fill-rule="evenodd" clip-rule="evenodd" d="M257 723.14L257 661.859L202.474 661.859L241.031 623.302L197.699 579.97L159 618.669L159 564L98 564L98 618.666L59.3048 579.971L15.9726 623.303L54.529 661.859L-3.47951e-05 661.859L-3.74738e-05 723.14L54.5291 723.14L15.9728 761.697L59.3049 805.029L98 766.334L98 821L159 821L159 766.33L197.699 805.029L241.031 761.697L202.474 723.14L257 723.14Z" fill="#168C51" style="fill:#168C51;fill:color(display-p3 0.0858 0.5508 0.3162);fill-opacity:1;"/>
<path fill-rule="evenodd" clip-rule="evenodd" d="M257 999.14L257 937.859L202.474 937.859L241.031 899.302L197.699 855.97L159 894.669L159 840L98 840L98 894.666L59.3048 855.971L15.9726 899.303L54.529 937.859L-3.47951e-05 937.859L-3.74738e-05 999.14L54.5291 999.14L15.9728 1037.7L59.3049 1081.03L98 1042.33L98 1097L159 1097L159 1042.33L197.699 1081.03L241.031 1037.7L202.474 999.14L257 999.14Z" fill="#168C51" style="fill:#168C51;fill:color(display-p3 0.0858 0.5508 0.3162);fill-opacity:1;"/>
<path fill-rule="evenodd" clip-rule="evenodd" d="M257 1275.14L257 1213.86L202.474 1213.86L241.031 1175.3L197.699 1131.97L159 1170.67L159 1116L98 1116L98 1170.67L59.3048 1131.97L15.9726 1175.3L54.529 1213.86L-3.47951e-05 1213.86L-3.74738e-05 1275.14L54.5291 1275.14L15.9728 1313.7L59.3049 1357.03L98 1318.33L98 1373L159 1373L159 1318.33L197.699 1357.03L241.031 1313.7L202.474 1275.14L257 1275.14Z" fill="#168C51" style="fill:#168C51;fill:color(display-p3 0.0858 0.5508 0.3162);fill-opacity:1;"/>
<path fill-rule="evenodd" clip-rule="evenodd" d="M257 171.14L257 109.859L202.474 109.859L241.031 71.3024L197.699 27.9702L159 66.6694L159 -79L98 -79L98 66.666L59.3048 27.9708L15.9726 71.303L54.5291 109.859L-3.87729e-05 109.859L-4.14516e-05 171.14L54.529 171.14L15.9728 209.697L59.3049 253.029L98 214.334L98 269L159 269L159 214.33L197.699 253.029L241.031 209.697L202.474 171.14L257 171.14Z" fill="#168C51" style="fill:#168C51;fill:color(display-p3 0.0858 0.5508 0.3162);fill-opacity:1;"/>
<path fill-rule="evenodd" clip-rule="evenodd" d="M257 1535.17L257 1473.89L202.474 1473.89L241.031 1435.33L197.699 1392L159 1430.7L159 1395.03L98 1395.03L98 1430.7L59.3048 1392L15.9726 1435.33L54.529 1473.89L-3.40971e-05 1473.89L-3.67758e-05 1535.17L54.5291 1535.17L15.9728 1573.73L59.3049 1617.06L98 1578.36L98 1743.03L159 1743.03L159 1578.36L197.699 1617.06L241.031 1573.73L202.474 1535.17L257 1535.17Z" fill="#168C51" style="fill:#168C51;fill:color(display-p3 0.0858 0.5508 0.3162);fill-opacity:1;"/>
</svg>
