<svg width="24" height="24" viewBox="0 0 24 24" fill="none" xmlns="http://www.w3.org/2000/svg">
<mask id="mask0_637_29" style="mask-type:alpha" maskUnits="userSpaceOnUse" x="0" y="0" width="24" height="24">
<rect width="24" height="24" fill="#D9D9D9" style="fill:#D9D9D9;fill:color(display-p3 0.8510 0.8510 0.8510);fill-opacity:1;"/>
</mask>
<g mask="url(#mask0_637_29)">
<path d="M20.4758 23.3L19.0008 21.825V22H17.0008V19.825L0.675781 3.5L2.10078 2.075L21.9008 21.875L20.4758 23.3ZM19.0008 16.125L14.0008 11.125V7C14.0008 5.61667 14.4883 4.4375 15.4633 3.4625C16.4383 2.4875 17.6174 2 19.0008 2V16.125ZM12.0008 9.3L10.0008 7.125V2H12.0008V9.3ZM9.00078 6.125L7.00078 4.125V2H9.00078V6.125ZM6.00078 3.125L4.87578 2H6.00078V3.125ZM7.00078 22V12.85C6.15078 12.6167 5.43828 12.15 4.86328 11.45C4.28828 10.75 4.00078 9.93333 4.00078 9V3.975L6.00078 5.975V9H7.00078V6.975L9.02578 8.975L11.2758 11.25C11.0091 11.6333 10.6799 11.9625 10.2883 12.2375C9.89662 12.5125 9.46745 12.7167 9.00078 12.85V22H7.00078Z" fill="#639C24" style="fill:#639C24;fill:color(display-p3 0.3866 0.6108 0.1400);fill-opacity:1;"/>
</g>
</svg>
