<svg width="30" height="30" viewBox="0 0 30 30" fill="none" xmlns="http://www.w3.org/2000/svg">
<path fill-rule="evenodd" clip-rule="evenodd" d="M22.6805 20.3603L29.7935 27.4733C30.0688 27.7487 30.0688 28.194 29.7935 28.4693L28.4693 29.7935C28.194 30.0688 27.7487 30.0688 27.4733 29.7935L20.3603 22.6805C20.2315 22.5458 20.1553 22.37 20.1553 22.1825V21.4092C18.0167 23.2547 15.2336 24.3738 12.1869 24.3738C5.45482 24.3738 0 18.919 0 12.1869C0 5.45482 5.45482 0 12.1869 0C18.919 0 24.3738 5.45482 24.3738 12.1869C24.3738 15.2336 23.2547 18.0167 21.4092 20.1553H22.1825C22.37 20.1553 22.5458 20.2255 22.6805 20.3603ZM2.81237 12.1869C2.81237 17.3663 7.00747 21.5615 12.1869 21.5615C17.3663 21.5615 21.5615 17.3663 21.5615 12.1869C21.5615 7.00747 17.3663 2.81237 12.1869 2.81237C7.00747 2.81237 2.81237 7.00747 2.81237 12.1869Z" fill="#2C2C2C" style="fill:#2C2C2C;fill:color(display-p3 0.1725 0.1725 0.1725);fill-opacity:1;"/>
</svg>
