<svg width="34" height="30" viewBox="0 0 34 30" fill="none" xmlns="http://www.w3.org/2000/svg">
<path fill-rule="evenodd" clip-rule="evenodd" d="M8.72148 3.70571H32.3272C32.7482 3.70584 33.1465 3.89677 33.4102 4.22493C33.6739 4.55309 33.7747 4.9831 33.6843 5.39429L31.0658 17.4371C30.9267 18.0756 30.3619 18.531 29.7086 18.5314H11.62L12.1643 21.31H28.5015C28.9216 21.3104 29.3189 21.5007 29.5825 21.8279C29.846 22.155 29.9476 22.5837 29.8586 22.9943L29.7986 23.27C31.192 24.6074 31.3245 26.7909 30.1029 28.287C28.8815 29.7831 26.7156 30.0901 25.1265 28.9926C23.5372 27.8949 23.0576 25.7606 24.0243 24.0886H15.6186C16.5747 25.7443 16.1142 27.8557 14.5553 28.9629C12.9965 30.07 10.8513 29.8094 9.60285 28.3613C8.35438 26.9133 8.41258 24.753 9.73719 23.3743L5.70719 2.77857H1.06148C0.678033 2.77857 0.367188 2.46773 0.367188 2.08429V0.694286C0.367188 0.310843 0.678033 1.43146e-08 1.06148 1.43146e-08H6.85148C7.51623 -9.47664e-05 8.08801 0.470496 8.21576 1.12286L8.72148 3.70571ZM11.02 25.9386C11.02 26.7063 11.6424 27.3286 12.41 27.3286C13.1774 27.3277 13.7993 26.7059 13.8 25.9386C13.8 25.1709 13.1777 24.5486 12.41 24.5486C11.6424 24.5486 11.02 25.1709 11.02 25.9386ZM27.2315 27.3286C26.4637 27.3286 25.8415 26.7063 25.8415 25.9386C25.8415 25.1709 26.4637 24.5486 27.2315 24.5486C27.9992 24.5486 28.6215 25.1709 28.6215 25.9386C28.6207 26.7054 27.9983 27.327 27.2315 27.3286ZM11.0815 15.7486H28.5886L30.6029 6.48429H9.26433L11.0815 15.7486Z" fill="#2C2C2C" style="fill:#2C2C2C;fill:color(display-p3 0.1725 0.1725 0.1725);fill-opacity:1;"/>
</svg>
