<svg width="59" height="59" viewBox="0 0 59 59" fill="none" xmlns="http://www.w3.org/2000/svg">
<circle cx="29.5" cy="29.5" r="29.5" fill="white" style="fill:white;fill-opacity:1;"/>
<circle cx="29.5" cy="29.5" r="18.5" fill="#2FADE9" style="fill:#2FADE9;fill:color(display-p3 0.1843 0.6784 0.9137);fill-opacity:1;"/>
<path d="M37.3832 20.0017C37.0988 20.0147 36.8338 20.1008 36.6005 20.1986C36.382 20.2899 35.5471 20.6617 34.2321 21.2472C32.9159 21.8332 31.1732 22.61 29.3141 23.44C25.596 25.1001 21.4159 26.9687 19.2748 27.9251C19.1943 27.961 18.9133 28.0542 18.6152 28.2959C18.317 28.5376 18 29.0384 18 29.5964C18 30.0463 18.2065 30.4933 18.4665 30.7602C18.7265 31.0271 19.0016 31.1589 19.2372 31.2587C20.0921 31.6209 22.7437 32.7475 23.2444 32.9602C23.4206 33.5206 24.3803 36.5687 24.6029 37.3157C24.7496 37.8087 24.8893 38.1174 25.0711 38.3625C25.162 38.485 25.2677 38.5923 25.3958 38.6765C25.447 38.7101 25.5031 38.736 25.5598 38.7599L25.5632 38.7616C25.5763 38.7671 25.5876 38.7763 25.6008 38.7812C25.6258 38.7902 25.6426 38.7913 25.676 38.7989C25.8093 38.8436 25.9439 38.8716 26.0639 38.8716C26.5759 38.8716 26.8893 38.5789 26.8893 38.5789L26.9081 38.5647L29.5414 36.1998L32.7352 39.3365C32.7801 39.4025 33.1995 40 34.1244 40C34.6736 40 35.1093 39.7139 35.389 39.4092C35.6687 39.1045 35.8429 38.7844 35.917 38.382V38.3802C35.9863 37.9999 38.9297 22.3117 38.9297 22.3117L38.9245 22.333C39.0107 21.9246 39.0333 21.5444 38.9382 21.1691C38.8431 20.7939 38.5926 20.4346 38.282 20.2412C37.9714 20.0479 37.6676 19.9887 37.3832 20.0017ZM37.2191 21.9001C37.2149 21.9266 37.2223 21.9132 37.2157 21.9444L37.214 21.9551L37.2123 21.9657C37.2123 21.9657 34.3054 37.4533 34.1979 38.0431C34.2058 37.9986 34.1698 38.0871 34.133 38.1407C34.0809 38.1034 33.9741 38.0555 33.9741 38.0555L33.957 38.036L29.5944 33.7514L26.5099 36.5191L27.4276 32.7047C27.4276 32.7047 33.1637 26.5399 33.5093 26.1811C33.7875 25.8941 33.8459 25.794 33.8459 25.695C33.8459 25.5624 33.7793 25.4661 33.6306 25.4661C33.4967 25.4661 33.3167 25.6012 33.2205 25.6648C31.9666 26.4947 26.462 29.8255 23.9945 31.3155C23.6024 31.1489 20.8782 29.9911 19.9549 29.5999C19.9619 29.5967 19.9596 29.5978 19.9669 29.5946C22.1085 28.6379 26.2869 26.7693 30.0045 25.1095C31.8633 24.2796 33.6074 23.5022 34.9225 22.9167C36.2173 22.3401 37.117 21.9434 37.2191 21.9001Z" fill="white" style="fill:white;fill-opacity:1;"/>
</svg>
