<svg width="59" height="59" viewBox="0 0 59 59" fill="none" xmlns="http://www.w3.org/2000/svg">
<circle cx="29.5" cy="29.5" r="29.5" fill="white" style="fill:white;fill-opacity:1;"/>
<path d="M29.5 11C19.2834 11 11 19.2834 11 29.5C11 39.7166 19.2834 48 29.5 48C39.7166 48 48 39.7166 48 29.5C48 19.2834 39.7166 11 29.5 11ZM39.4653 25.6998C39.4746 25.9048 39.4792 26.1083 39.4792 26.3118C39.4792 32.5833 34.7077 39.8107 25.9804 39.8107C23.2994 39.8107 20.8065 39.026 18.7083 37.6785C19.0799 37.7232 19.4576 37.7433 19.8415 37.7433C22.0661 37.7433 24.1103 36.9863 25.7322 35.7114C23.6555 35.6728 21.9027 34.3007 21.2999 32.4168C21.5897 32.4723 21.8872 32.5016 22.1925 32.5016C22.6257 32.5016 23.0466 32.443 23.4428 32.3351C21.2721 31.9004 19.6364 29.9825 19.6364 27.6839C19.6364 27.6639 19.6364 27.6438 19.6364 27.6238C20.2762 27.9799 21.007 28.1927 21.7855 28.2173C20.5136 27.3679 19.675 25.9141 19.675 24.2691C19.675 23.3981 19.9078 22.5825 20.3163 21.8842C22.6565 24.7548 26.153 26.6448 30.0951 26.8422C30.0149 26.4953 29.9733 26.133 29.9733 25.7615C29.9733 23.1422 32.0977 21.0162 34.717 21.0162C36.0814 21.0162 37.3147 21.5928 38.1796 22.5147C39.2603 22.3004 40.2762 21.9073 41.1935 21.3631C40.839 22.4715 40.0866 23.3996 39.1061 23.9885C40.065 23.8745 40.9792 23.6201 41.8318 23.2424C41.1982 24.1951 40.395 25.0292 39.4653 25.6998Z" fill="#24A4F2" style="fill:#24A4F2;fill:color(display-p3 0.1412 0.6431 0.9490);fill-opacity:1;"/>
</svg>
