<svg width="59" height="59" viewBox="0 0 59 59" fill="none" xmlns="http://www.w3.org/2000/svg">
<circle cx="29.5" cy="29.5" r="29.5" fill="white" style="fill:white;fill-opacity:1;"/>
<path d="M29.5 13C23.543 13 15.8112 14.5317 15.8112 14.5317L15.7918 14.5545C13.0786 14.9998 11 17.3923 11 20.302V29.0644V29.0672V37.8267V37.8296C11.0026 39.2192 11.4879 40.5624 12.3687 41.6178C13.2495 42.6733 14.4681 43.372 15.8057 43.5885L15.8112 43.597C15.8112 43.597 23.543 45.1316 29.5 45.1316C35.457 45.1316 43.1888 43.597 43.1888 43.597L43.1916 43.5942C44.5306 43.3782 45.7506 42.6789 46.632 41.6222C47.5135 40.5655 47.9986 39.2206 48 37.8296V37.8267V29.0672V29.0644V20.302C47.998 18.9119 47.513 17.5681 46.6322 16.512C45.7513 15.4559 44.5324 14.7568 43.1943 14.5403L43.1888 14.5317C43.1888 14.5317 35.457 13 29.5 13ZM25.2308 22.3443L36.6154 29.0644L25.2308 35.7845V22.3443Z" fill="#FF0808" style="fill:#FF0808;fill:color(display-p3 1.0000 0.0314 0.0314);fill-opacity:1;"/>
</svg>
